<svg xmlns="http://www.w3.org/2000/svg" width="1200" height="675" viewBox="0 0 1200 675"><defs><linearGradient id="bg" x2="1" y2="1"><stop stop-color="#eff6ff"/><stop offset="1" stop-color="#ede9fe"/></linearGradient><linearGradient id="p" x2="1" y2="1"><stop stop-color="#2563eb"/><stop offset="1" stop-color="#4f46e5"/></linearGradient></defs><rect width="1200" height="675" rx="34" fill="url(#bg)"/><g font-family="Segoe UI,Arial,sans-serif" fill="#172033"><rect x="55" y="42" width="1090" height="104" rx="24" fill="#fff" stroke="#cbd5e1"/><rect x="78" y="65" width="58" height="58" rx="18" fill="url(#p)"/><text x="107" y="107" text-anchor="middle" font-size="34" font-weight="950" fill="#fff">P</text><text x="157" y="82" font-size="12" font-weight="800" letter-spacing="3" fill="#2563eb">ROSA SMART PARKING</text><text x="157" y="119" font-size="30" font-weight="900">Bãi đỗ xe thông minh</text><g transform="translate(55 168)"><g><rect width="257" height="100" rx="21" fill="#fff" stroke="#cbd5e1"/><text x="18" y="29" font-size="12" fill="#64748b">TỔNG SỨC CHỨA</text><text x="18" y="70" font-size="30" font-weight="900">12 chỗ</text></g><g transform="translate(277)"><rect width="257" height="100" rx="21" fill="#fff" stroke="#cbd5e1"/><text x="18" y="29" font-size="12" fill="#64748b">CHỖ CÒN TRỐNG</text><text x="18" y="70" font-size="30" font-weight="900" fill="#16a34a">5 chỗ</text></g><g transform="translate(554)"><rect width="257" height="100" rx="21" fill="#fff" stroke="#cbd5e1"/><text x="18" y="29" font-size="12" fill="#64748b">LƯỢT XE HÔM NAY</text><text x="18" y="70" font-size="30" font-weight="900">86 vào</text></g><g transform="translate(831)"><rect width="259" height="100" rx="21" fill="#fff" stroke="#cbd5e1"/><text x="18" y="29" font-size="12" fill="#64748b">DOANH THU HÔM NAY</text><text x="18" y="70" font-size="27" font-weight="900">4.320.000 ₫</text></g></g><g transform="translate(55 292)"><rect width="1090" height="330" rx="24" fill="#fff" stroke="#cbd5e1"/><rect width="1090" height="4" rx="2" fill="url(#p)"/><text x="24" y="44" font-size="21" font-weight="900">Sơ đồ vị trí</text><text x="1040" y="44" text-anchor="end" font-size="13" fill="#64748b">5 trống · 7 đã có xe</text><g transform="translate(24 72)"><g id="free"><rect width="158" height="102" rx="15" fill="#f0fdf4" stroke="#22c55e" stroke-width="2"/><text x="79" y="26" text-anchor="middle" font-size="13" font-weight="900">A01</text><text x="79" y="61" text-anchor="middle" font-size="27" fill="#16a34a">·</text><text x="79" y="86" text-anchor="middle" font-size="11" font-weight="800" fill="#15803d">CÒN TRỐNG</text></g><g id="busy"><rect width="158" height="102" rx="15" fill="#fef2f2" stroke="#ef4444" stroke-width="2"/><text x="79" y="26" text-anchor="middle" font-size="13" font-weight="900">A02</text><text x="79" y="63" text-anchor="middle" font-size="25">🚗</text><text x="79" y="86" text-anchor="middle" font-size="11" font-weight="800" fill="#dc2626">ĐÃ CÓ XE</text></g><use href="#busy" x="178"/><use href="#free" x="356"/><use href="#busy" x="534"/><use href="#busy" x="712"/><use href="#free" x="890"/><use href="#busy" x="178" y="122"/><use href="#free" x="356" y="122"/><use href="#busy" x="534" y="122"/><use href="#free" x="712" y="122"/><use href="#busy" x="890" y="122"/></g></g></g></svg>
