<svg xmlns="http://www.w3.org/2000/svg" width="1200" height="720" viewBox="0 0 1200 720" role="img" aria-labelledby="title desc">
  <title id="title">Mixer Management Template</title>
  <desc id="desc">Preview for a database-first automatic mixer management dashboard.</desc>
  <rect width="1200" height="720" fill="#f6f8fb"/>
  <rect x="72" y="58" width="1056" height="604" rx="14" fill="#ffffff" stroke="#d8dee8" stroke-width="2"/>
  <rect x="104" y="96" width="992" height="116" rx="10" fill="#0f766e"/>
  <text x="136" y="145" fill="#ffffff" font-family="Arial, sans-serif" font-size="22" font-weight="700">ROSA Mixer Manager</text>
  <text x="136" y="184" fill="#d9fffb" font-family="Arial, sans-serif" font-size="42" font-weight="800">Quản lý máy pha chế</text>
  <rect x="104" y="244" width="236" height="102" rx="10" fill="#e7f8f5" stroke="#b9e5dd"/>
  <text x="128" y="286" fill="#516172" font-family="Arial, sans-serif" font-size="18" font-weight="700">Máy</text>
  <text x="128" y="326" fill="#0b5f59" font-family="Arial, sans-serif" font-size="42" font-weight="800">2</text>
  <rect x="364" y="244" width="236" height="102" rx="10" fill="#eef6ff" stroke="#cfe4ff"/>
  <text x="388" y="286" fill="#516172" font-family="Arial, sans-serif" font-size="18" font-weight="700">Nguyên liệu</text>
  <text x="388" y="326" fill="#1d4ed8" font-family="Arial, sans-serif" font-size="42" font-weight="800">12</text>
  <rect x="624" y="244" width="236" height="102" rx="10" fill="#fff7ed" stroke="#fed7aa"/>
  <text x="648" y="286" fill="#516172" font-family="Arial, sans-serif" font-size="18" font-weight="700">Công thức</text>
  <text x="648" y="326" fill="#c2410c" font-family="Arial, sans-serif" font-size="42" font-weight="800">6</text>
  <rect x="884" y="244" width="212" height="102" rx="10" fill="#f5f3ff" stroke="#ddd6fe"/>
  <text x="908" y="286" fill="#516172" font-family="Arial, sans-serif" font-size="18" font-weight="700">Link</text>
  <text x="908" y="326" fill="#6d28d9" font-family="Arial, sans-serif" font-size="42" font-weight="800">2</text>
  <rect x="104" y="386" width="468" height="218" rx="10" fill="#ffffff" stroke="#d8dee8"/>
  <text x="132" y="430" fill="#111827" font-family="Arial, sans-serif" font-size="24" font-weight="800">Máy pha chế</text>
  <rect x="132" y="458" width="384" height="46" rx="7" fill="#f8fafc" stroke="#e3e8ef"/>
  <text x="154" y="488" fill="#111827" font-family="Arial, sans-serif" font-size="18" font-weight="700">Mixer 01 - IO demo</text>
  <rect x="132" y="520" width="384" height="46" rx="7" fill="#f8fafc" stroke="#e3e8ef"/>
  <text x="154" y="550" fill="#111827" font-family="Arial, sans-serif" font-size="18" font-weight="700">Mixer 02 - batch API</text>
  <rect x="628" y="386" width="468" height="218" rx="10" fill="#111827"/>
  <text x="656" y="430" fill="#d9f99d" font-family="Consolas, monospace" font-size="18">mixer-io-get-positions-8</text>
  <text x="656" y="468" fill="#d9f99d" font-family="Consolas, monospace" font-size="16">{"c1":"8","c2":"1,2,3","c3":"1,2,3"}</text>
  <text x="656" y="506" fill="#d9f99d" font-family="Consolas, monospace" font-size="16">batch update, no API key in page</text>
  <text x="656" y="544" fill="#d9f99d" font-family="Consolas, monospace" font-size="16">system_pages + system_cmds</text>
</svg>
