<svg xmlns="http://www.w3.org/2000/svg" width="1280" height="720" viewBox="0 0 1280 720" role="img" aria-label="Locker management dashboard preview">
  <rect width="1280" height="720" fill="#f6f7f9"/>
  <rect x="56" y="44" width="1168" height="112" rx="10" fill="#ffffff" stroke="#d7dce2"/>
  <text x="84" y="92" fill="#111827" font-family="Arial, sans-serif" font-size="34" font-weight="700">Quản lý tủ locker</text>
  <text x="84" y="126" fill="#64748b" font-family="Arial, sans-serif" font-size="18">Database-first locker status, QR tủ và log thiết bị IoT</text>
  <g transform="translate(56 184)">
    <rect width="1168" height="214" rx="10" fill="#ffffff" stroke="#d7dce2"/>
    <text x="24" y="40" fill="#111827" font-family="Arial, sans-serif" font-size="22" font-weight="700">CAB-A - Khu A</text>
    <g transform="translate(24 66)">
      <script type="application/ecmascript"><![CDATA[]]></script>
      <rect width="42" height="42" rx="5" fill="#dcfce7" stroke="#16a34a"/><rect x="50" width="42" height="42" rx="5" fill="#dcfce7" stroke="#16a34a"/><rect x="100" width="42" height="42" rx="5" fill="#dbeafe" stroke="#2563eb"/><rect x="150" width="42" height="42" rx="5" fill="#fef3c7" stroke="#d97706"/><rect x="200" width="42" height="42" rx="5" fill="#fee2e2" stroke="#dc2626"/><rect x="250" width="42" height="42" rx="5" fill="#e5e7eb" stroke="#71717a"/>
      <rect y="54" width="42" height="42" rx="5" fill="#dcfce7" stroke="#16a34a"/><rect x="50" y="54" width="42" height="42" rx="5" fill="#dbeafe" stroke="#2563eb"/><rect x="100" y="54" width="42" height="42" rx="5" fill="#dcfce7" stroke="#16a34a"/><rect x="150" y="54" width="42" height="42" rx="5" fill="#dcfce7" stroke="#16a34a"/><rect x="200" y="54" width="42" height="42" rx="5" fill="#dbeafe" stroke="#2563eb"/><rect x="250" y="54" width="42" height="42" rx="5" fill="#dcfce7" stroke="#16a34a"/>
      <rect y="108" width="42" height="42" rx="5" fill="#dcfce7" stroke="#16a34a"/><rect x="50" y="108" width="42" height="42" rx="5" fill="#dcfce7" stroke="#16a34a"/><rect x="100" y="108" width="42" height="42" rx="5" fill="#fef3c7" stroke="#d97706"/><rect x="150" y="108" width="42" height="42" rx="5" fill="#dcfce7" stroke="#16a34a"/><rect x="200" y="108" width="42" height="42" rx="5" fill="#dcfce7" stroke="#16a34a"/><rect x="250" y="108" width="42" height="42" rx="5" fill="#dbeafe" stroke="#2563eb"/>
    </g>
  </g>
  <g transform="translate(56 426)">
    <rect width="1168" height="214" rx="10" fill="#ffffff" stroke="#d7dce2"/>
    <text x="24" y="40" fill="#111827" font-family="Arial, sans-serif" font-size="22" font-weight="700">CAB-B - Khu B</text>
    <g transform="translate(24 66)">
      <rect width="42" height="42" rx="5" fill="#dcfce7" stroke="#16a34a"/><rect x="50" width="42" height="42" rx="5" fill="#dbeafe" stroke="#2563eb"/><rect x="100" width="42" height="42" rx="5" fill="#dcfce7" stroke="#16a34a"/><rect x="150" width="42" height="42" rx="5" fill="#dcfce7" stroke="#16a34a"/><rect x="200" width="42" height="42" rx="5" fill="#e5e7eb" stroke="#71717a"/><rect x="250" width="42" height="42" rx="5" fill="#dcfce7" stroke="#16a34a"/><rect x="300" width="42" height="42" rx="5" fill="#fee2e2" stroke="#dc2626"/><rect x="350" width="42" height="42" rx="5" fill="#dcfce7" stroke="#16a34a"/>
      <rect y="54" width="42" height="42" rx="5" fill="#dcfce7" stroke="#16a34a"/><rect x="50" y="54" width="42" height="42" rx="5" fill="#dcfce7" stroke="#16a34a"/><rect x="100" y="54" width="42" height="42" rx="5" fill="#dbeafe" stroke="#2563eb"/><rect x="150" y="54" width="42" height="42" rx="5" fill="#fef3c7" stroke="#d97706"/><rect x="200" y="54" width="42" height="42" rx="5" fill="#dcfce7" stroke="#16a34a"/><rect x="250" y="54" width="42" height="42" rx="5" fill="#dcfce7" stroke="#16a34a"/><rect x="300" y="54" width="42" height="42" rx="5" fill="#dbeafe" stroke="#2563eb"/><rect x="350" y="54" width="42" height="42" rx="5" fill="#dcfce7" stroke="#16a34a"/>
    </g>
  </g>
  <g transform="translate(520 230)">
    <rect width="620" height="338" rx="10" fill="#f8fafc" stroke="#d7dce2"/>
    <text x="24" y="42" fill="#111827" font-family="Arial, sans-serif" font-size="20" font-weight="700">Log gần nhất</text>
    <line x1="24" y1="68" x2="596" y2="68" stroke="#d7dce2"/>
    <text x="24" y="104" fill="#334155" font-family="Arial, sans-serif" font-size="16">deposit_success | CAB-A | A-003 | 091****123</text>
    <text x="24" y="142" fill="#334155" font-family="Arial, sans-serif" font-size="16">pickup_success | CAB-B | B-011 | 098****456</text>
    <text x="24" y="180" fill="#334155" font-family="Arial, sans-serif" font-size="16">manual_open | CAB-A | A-018 | admin</text>
  </g>
</svg>
